# xmcd
#
# Track frame offsets:
#	150
#	31675
#	74810
#	110437
#	131895
#	165495
#	191895
#	214470
#	236300
#
# Disc length: 3588 seconds
# Revision: 3
# Processed by: cddbd v1.5.2PL0 Copyright (c) Steve Scherf et al.
# Submitted via: dBpowerAMP V12.0
#
DISCID=850e0209
DTITLE=Gene Harris and Jack McDuff - Down Home Blues
DYEAR=1997
DGENRE=Blues
TTITLE0=Down Home Blues
TTITLE1=J&G Blues
TTITLE2=Soft Winds
TTITLE3=Time After Time
TTITLE4=Blues For Big Foot
TTITLE5=Smack Dab In The Middle
TTITLE6=You Don't Know What Love Is
TTITLE7=Stormy Monday
TTITLE8=Cayenne Blues
EXTD=
EXTT0=
EXTT1=
EXTT2=
EXTT3=
EXTT4=
EXTT5=
EXTT6=
EXTT7=
EXTT8=
PLAYORDER=
